<svg width="227.503906" height="46.000000" viewBox="0 0 227.504 46" fill="none" xmlns="http://www.w3.org/2000/svg" xmlns:xlink="http://www.w3.org/1999/xlink">
	<desc>
			Created with Pixso.
	</desc>
	<defs>
		<clipPath id="clip29_355">
			<rect id="Frame" rx="-0.500000" width="226.503876" height="45.000000" transform="translate(0.500000 0.500000)" fill="white" fill-opacity="0"/>
		</clipPath>
	</defs>
	<rect id="Frame" rx="-0.500000" width="226.503876" height="45.000000" transform="translate(0.500000 0.500000)" fill="#FFFFFF" fill-opacity="0"/>
	<g clip-path="url(#clip29_355)">
		<path id="Vector" d="M0 28.51L0 11.5C-0.01 11.35 0.02 11.21 0.07 11.08C0.12 10.94 0.2 10.82 0.31 10.72C0.41 10.62 0.53 10.54 0.66 10.49C0.79 10.43 0.93 10.41 1.07 10.41L5.02 10.41C5.17 10.41 5.31 10.43 5.45 10.49C5.58 10.54 5.7 10.62 5.8 10.72C5.9 10.82 5.98 10.95 6.03 11.08C6.08 11.21 6.11 11.36 6.1 11.5L6.1 17.76L13.83 17.76L13.83 11.5C13.82 11.35 13.85 11.21 13.9 11.08C13.96 10.94 14.04 10.82 14.14 10.72C14.24 10.62 14.36 10.54 14.5 10.48C14.64 10.43 14.78 10.41 14.93 10.41L18.86 10.41C19 10.41 19.14 10.43 19.28 10.48C19.41 10.54 19.53 10.62 19.63 10.72C19.73 10.82 19.81 10.95 19.86 11.08C19.92 11.21 19.94 11.35 19.94 11.5L19.94 28.51C19.94 28.66 19.92 28.8 19.87 28.93C19.81 29.06 19.74 29.18 19.63 29.28C19.53 29.38 19.41 29.46 19.28 29.51C19.14 29.56 19 29.58 18.86 29.58L14.93 29.58C14.78 29.58 14.64 29.56 14.5 29.51C14.37 29.45 14.24 29.38 14.14 29.28C14.04 29.18 13.96 29.06 13.91 28.93C13.85 28.8 13.83 28.66 13.83 28.51L13.83 21.99L6.1 21.99L6.1 28.51C6.11 28.66 6.08 28.8 6.03 28.93C5.98 29.06 5.9 29.18 5.79 29.28C5.69 29.38 5.57 29.46 5.44 29.51C5.31 29.56 5.17 29.58 5.02 29.58L1.07 29.58C0.93 29.58 0.79 29.56 0.65 29.51C0.52 29.46 0.4 29.38 0.29 29.28C0.19 29.18 0.12 29.06 0.06 28.93C0.01 28.8 -0.01 28.66 0 28.51Z" fill="#000000" fill-opacity="1.000000" fill-rule="nonzero"/>
		<path id="Vector" d="M28.03 31.4L30.34 31.7C32 31.7 33.16 30.49 33.82 28.08C31.98 28.14 30.19 27.49 28.81 26.28C27.47 25.09 26.32 22.96 25.35 19.89L22.72 11.46C22.68 11.36 22.66 11.25 22.66 11.14C22.69 10.97 22.76 10.81 22.89 10.7C22.97 10.6 23.07 10.53 23.18 10.48C23.3 10.43 23.42 10.41 23.55 10.41L27.23 10.41C27.59 10.42 27.93 10.54 28.21 10.75C28.5 10.96 28.71 11.26 28.8 11.6L31.11 19.02C31.46 20.37 32.06 21.65 32.87 22.8C33.12 23.12 33.44 23.38 33.8 23.56C34.17 23.74 34.57 23.84 34.98 23.84L38.5 11.6C38.59 11.27 38.78 10.97 39.05 10.75C39.31 10.53 39.64 10.41 39.98 10.41L43.7 10.41C43.82 10.4 43.95 10.42 44.06 10.47C44.18 10.52 44.28 10.6 44.35 10.7C44.47 10.82 44.55 10.98 44.57 11.16C44.57 11.26 44.56 11.36 44.53 11.46L39.91 27.79C39.08 30.69 38.06 32.75 36.85 33.99C36.24 34.6 35.51 35.08 34.7 35.4C33.89 35.72 33.03 35.87 32.16 35.84C30.8 35.87 29.44 35.8 28.1 35.63C27.56 35.59 27.05 35.41 26.6 35.11C26.51 35.02 26.43 34.91 26.38 34.79C26.33 34.67 26.3 34.54 26.3 34.41L26.3 32.48C26.3 32.34 26.32 32.2 26.37 32.06C26.42 31.93 26.5 31.81 26.6 31.7C26.7 31.6 26.83 31.52 26.96 31.47C27.09 31.42 27.24 31.39 27.38 31.4L28.03 31.4Z" fill="#000000" fill-opacity="1.000000" fill-rule="nonzero"/>
		<path id="Vector" d="M47.11 34.42L47.11 11.5C47.1 11.35 47.13 11.21 47.18 11.08C47.23 10.94 47.31 10.82 47.42 10.72C47.52 10.62 47.64 10.54 47.77 10.49C47.9 10.43 48.04 10.41 48.19 10.41L51.59 10.41C51.73 10.41 51.88 10.44 52.01 10.49C52.14 10.54 52.26 10.62 52.36 10.73C52.46 10.83 52.54 10.95 52.59 11.08C52.65 11.21 52.67 11.36 52.66 11.5L52.66 12.02C54.55 10.71 56.81 10.03 59.11 10.06C60.26 10.04 61.41 10.25 62.47 10.7C63.53 11.14 64.48 11.8 65.27 12.64C66.92 14.36 67.74 16.82 67.74 20.02C67.74 23.22 66.89 25.67 65.18 27.37C63.47 29.08 61.17 29.93 58.28 29.93C56.54 29.89 54.82 29.59 53.18 29.04L53.18 34.42C53.18 34.56 53.16 34.7 53.11 34.84C53.06 34.97 52.98 35.09 52.87 35.19C52.77 35.29 52.65 35.37 52.52 35.43C52.39 35.48 52.25 35.51 52.11 35.5L48.16 35.5C48.01 35.51 47.87 35.48 47.74 35.43C47.61 35.37 47.49 35.3 47.39 35.19C47.29 35.09 47.22 34.97 47.17 34.83C47.12 34.7 47.1 34.56 47.11 34.42ZM53.2 25C54.43 25.42 55.72 25.67 57.03 25.71C58.64 25.71 59.79 25.26 60.46 24.35C61.13 23.44 61.47 21.99 61.47 20C61.47 18 61.16 16.55 60.51 15.65C60.19 15.2 59.75 14.84 59.25 14.6C58.75 14.37 58.19 14.26 57.63 14.3C56.36 14.3 54.88 14.82 53.2 15.87L53.2 25Z" fill="#000000" fill-opacity="1.000000" fill-rule="nonzero"/>
		<path id="Vector" d="M111.42 28.51L111.42 11.5C111.42 11.35 111.44 11.21 111.49 11.08C111.55 10.94 111.63 10.82 111.73 10.72C111.83 10.62 111.95 10.54 112.08 10.49C112.21 10.43 112.35 10.41 112.5 10.41L116.18 10.41C116.33 10.41 116.47 10.43 116.61 10.48C116.74 10.54 116.87 10.62 116.97 10.72C117.07 10.82 117.15 10.94 117.21 11.08C117.26 11.21 117.28 11.35 117.28 11.5L117.28 22.99L123.49 11.67C123.69 11.3 123.99 10.99 124.35 10.77C124.69 10.55 125.08 10.42 125.49 10.41L130.42 10.41C130.57 10.41 130.71 10.43 130.85 10.48C130.98 10.54 131.1 10.62 131.21 10.72C131.31 10.82 131.39 10.94 131.44 11.08C131.5 11.21 131.52 11.35 131.52 11.5L131.52 28.51C131.52 28.66 131.5 28.8 131.44 28.93C131.39 29.06 131.31 29.18 131.21 29.28C131.1 29.38 130.98 29.46 130.84 29.51C130.71 29.56 130.57 29.58 130.42 29.58L126.73 29.58C126.59 29.58 126.45 29.56 126.32 29.51C126.18 29.46 126.06 29.38 125.96 29.28C125.86 29.17 125.78 29.06 125.73 28.92C125.68 28.79 125.66 28.65 125.66 28.51L125.66 17.04L119.44 28.32C119.23 28.68 118.93 28.99 118.57 29.21C118.24 29.44 117.85 29.56 117.44 29.58L112.48 29.58C112.34 29.58 112.2 29.56 112.07 29.51C111.93 29.46 111.81 29.38 111.71 29.28C111.61 29.18 111.53 29.06 111.48 28.93C111.43 28.8 111.4 28.66 111.41 28.51L111.42 28.51Z" fill="#000000" fill-opacity="1.000000" fill-rule="nonzero"/>
		<path id="Vector" d="M135.85 28.51L135.85 11.5C135.85 11.35 135.87 11.21 135.92 11.08C135.98 10.94 136.06 10.82 136.16 10.72C136.26 10.62 136.38 10.54 136.51 10.49C136.64 10.43 136.78 10.41 136.93 10.41L140.88 10.41C141.02 10.41 141.17 10.43 141.3 10.48C141.44 10.54 141.56 10.62 141.66 10.72C141.76 10.82 141.84 10.95 141.89 11.08C141.94 11.21 141.96 11.36 141.96 11.5L141.96 17.76L149.68 17.76L149.68 11.5C149.68 11.35 149.7 11.21 149.76 11.08C149.81 10.94 149.89 10.82 149.99 10.72C150.1 10.62 150.22 10.54 150.35 10.48C150.49 10.43 150.63 10.41 150.78 10.41L154.71 10.41C154.86 10.41 155 10.43 155.14 10.49C155.27 10.54 155.39 10.62 155.49 10.72C155.59 10.82 155.67 10.95 155.72 11.08C155.77 11.21 155.8 11.36 155.79 11.5L155.79 28.51C155.8 28.66 155.77 28.8 155.72 28.93C155.67 29.06 155.59 29.18 155.49 29.28C155.39 29.38 155.27 29.46 155.13 29.51C155 29.56 154.86 29.58 154.71 29.58L150.78 29.58C150.63 29.58 150.49 29.56 150.36 29.51C150.22 29.46 150.1 29.38 149.99 29.28C149.89 29.18 149.81 29.06 149.76 28.93C149.71 28.8 149.68 28.66 149.68 28.51L149.68 21.99L141.95 21.99L141.95 28.51C141.95 28.66 141.92 28.8 141.87 28.93C141.82 29.06 141.74 29.18 141.64 29.28C141.53 29.38 141.41 29.46 141.28 29.51C141.15 29.56 141.01 29.58 140.87 29.58L136.92 29.58C136.77 29.58 136.63 29.56 136.5 29.51C136.37 29.46 136.24 29.38 136.14 29.28C136.04 29.18 135.97 29.06 135.92 28.93C135.86 28.8 135.84 28.66 135.85 28.51Z" fill="#000000" fill-opacity="1.000000" fill-rule="nonzero"/>
		<path id="Vector" d="M161.36 28.32C160.61 27.83 160 27.15 159.59 26.35C159.18 25.55 158.98 24.67 159.02 23.77C158.98 22.88 159.17 22 159.59 21.21C160 20.42 160.61 19.75 161.36 19.26C163.16 18.15 165.26 17.6 167.39 17.69L173.25 17.69C173.25 16.32 172.96 15.37 172.38 14.84C171.79 14.3 170.8 14.03 169.36 14.03C167.91 14.03 166.91 14.39 166.32 15.09C166.07 15.42 165.75 15.69 165.38 15.87C165 16.06 164.59 16.15 164.18 16.15L161.55 16.15C161.4 16.16 161.26 16.13 161.12 16.08C160.99 16.03 160.87 15.95 160.76 15.84C160.66 15.75 160.58 15.63 160.53 15.5C160.47 15.36 160.45 15.22 160.45 15.08C160.45 11.74 163.66 10.06 170.07 10.06C172.87 10.06 175.12 10.69 176.81 11.93C178.5 13.17 179.35 15.09 179.35 17.69L179.35 28.51C179.36 28.66 179.33 28.8 179.28 28.93C179.23 29.06 179.15 29.18 179.05 29.28C178.95 29.38 178.83 29.46 178.7 29.51C178.56 29.56 178.42 29.58 178.28 29.58L174.87 29.58C174.73 29.58 174.58 29.56 174.45 29.51C174.32 29.46 174.19 29.38 174.09 29.28C173.99 29.17 173.92 29.06 173.87 28.92C173.81 28.79 173.79 28.66 173.79 28.51L173.79 27.97C171.91 29.3 169.65 29.99 167.35 29.94C165.23 30.02 163.14 29.46 161.36 28.32ZM165.86 22.25C165.63 22.44 165.45 22.68 165.32 22.95C165.2 23.21 165.13 23.5 165.13 23.8C165.13 24.1 165.2 24.39 165.32 24.65C165.45 24.92 165.63 25.16 165.86 25.35C166.47 25.79 167.21 26.01 167.96 25.96C169.82 25.94 171.64 25.4 173.2 24.38L173.2 21.64L167.78 21.64C167.09 21.61 166.41 21.83 165.86 22.25Z" fill="#000000" fill-opacity="1.000000" fill-rule="nonzero"/>
		<path id="Vector" d="M183.68 28.51L183.68 11.5C183.67 11.35 183.7 11.21 183.75 11.08C183.8 10.94 183.88 10.82 183.98 10.72C184.08 10.62 184.2 10.54 184.33 10.49C184.46 10.43 184.61 10.41 184.75 10.41L188.71 10.41C188.85 10.41 188.99 10.43 189.13 10.49C189.26 10.54 189.38 10.62 189.48 10.72C189.58 10.82 189.66 10.95 189.71 11.08C189.76 11.21 189.78 11.36 189.78 11.5L189.78 17.76L197.51 17.76L197.51 11.5C197.5 11.35 197.53 11.21 197.58 11.08C197.63 10.94 197.71 10.82 197.82 10.72C197.92 10.62 198.04 10.54 198.18 10.48C198.31 10.43 198.46 10.41 198.6 10.41L202.53 10.41C202.68 10.41 202.82 10.43 202.96 10.48C203.09 10.54 203.21 10.62 203.31 10.72C203.41 10.82 203.49 10.95 203.54 11.08C203.59 11.21 203.62 11.36 203.61 11.5L203.61 28.51C203.62 28.66 203.6 28.8 203.54 28.93C203.49 29.06 203.41 29.18 203.31 29.28C203.21 29.38 203.09 29.46 202.95 29.51C202.82 29.56 202.68 29.58 202.53 29.58L198.6 29.58C198.46 29.58 198.31 29.56 198.18 29.51C198.04 29.46 197.92 29.38 197.81 29.28C197.71 29.18 197.64 29.06 197.58 28.93C197.53 28.79 197.51 28.66 197.51 28.51L197.51 21.99L189.78 21.99L189.78 28.51C189.78 28.66 189.76 28.8 189.71 28.93C189.65 29.06 189.57 29.18 189.47 29.28C189.37 29.38 189.25 29.46 189.12 29.51C188.99 29.56 188.85 29.58 188.71 29.58L184.75 29.58C184.61 29.58 184.46 29.56 184.33 29.51C184.2 29.46 184.08 29.38 183.98 29.28C183.87 29.18 183.8 29.06 183.74 28.93C183.69 28.8 183.67 28.66 183.68 28.51Z" fill="#000000" fill-opacity="1.000000" fill-rule="nonzero"/>
		<path id="Vector" d="M217.33 29.93C214.03 29.93 211.46 29.09 209.63 27.41C207.79 25.73 206.88 23.26 206.88 20C206.88 16.75 207.79 14.28 209.61 12.59C211.43 10.91 213.97 10.06 217.23 10.06C220.48 10.06 222.98 10.58 224.73 11.6C225.55 12.05 226.23 12.71 226.69 13.51C227.15 14.31 227.38 15.23 227.35 16.15C227.35 16.29 227.33 16.44 227.28 16.57C227.22 16.7 227.14 16.82 227.04 16.92C226.94 17.02 226.81 17.09 226.68 17.15C226.54 17.2 226.4 17.22 226.26 17.21L223.62 17.21C223.2 17.2 222.79 17.07 222.44 16.85C222.08 16.62 221.79 16.31 221.6 15.94C220.9 14.84 219.68 14.29 217.92 14.3C216.16 14.3 214.93 14.74 214.23 15.63C213.54 16.53 213.18 17.96 213.18 20C213.18 22.04 213.54 23.48 214.27 24.37C215 25.25 216.25 25.71 218.04 25.71C219.84 25.71 221.08 25.17 221.77 24.07C221.97 23.7 222.25 23.39 222.6 23.17C222.96 22.95 223.36 22.82 223.78 22.8L226.41 22.8C226.55 22.79 226.7 22.82 226.83 22.87C226.97 22.92 227.09 23 227.19 23.11C227.3 23.21 227.38 23.32 227.43 23.46C227.48 23.59 227.51 23.73 227.51 23.87C227.54 24.79 227.31 25.71 226.85 26.51C226.39 27.31 225.71 27.97 224.89 28.42C223.14 29.42 220.62 29.93 217.33 29.93Z" fill="#000000" fill-opacity="1.000000" fill-rule="nonzero"/>
		<path id="Vector" d="M82.36 23.71L82.36 6.02C82.36 6.02 76.88 7.86 76.54 8C75.29 8.54 74.22 9.44 73.46 10.57C72.71 11.71 72.3 13.03 72.29 14.39L72.29 28.69C72.31 30.05 72.71 31.38 73.46 32.51C74.22 33.64 75.29 34.54 76.54 35.08C76.87 35.23 82.36 37.07 82.36 37.07L82.36 30.15L79.7 30.15L82.36 23.71Z" fill="#60AAFB" fill-opacity="1.000000" fill-rule="nonzero"/>
		<path id="Vector" d="M94.56 12.08L94.56 0C94.56 0 89.07 1.84 88.74 1.98C87.49 2.52 86.42 3.41 85.66 4.55C84.91 5.68 84.5 7.01 84.49 8.37L84.49 23.79L87.11 30.18L84.49 30.18C84.49 38.5 84.49 46.02 84.49 46.02C84.49 46.02 89.98 44.18 90.31 44.03C91.57 43.49 92.64 42.59 93.39 41.46C94.15 40.32 94.55 39 94.56 37.64L94.56 18.61L91.89 18.61L94.56 12.08Z" fill="#355DFB" fill-opacity="1.000000" fill-rule="nonzero"/>
		<path id="Vector" d="M106.67 14.4C106.66 13.04 106.25 11.71 105.5 10.58C104.75 9.44 103.68 8.55 102.42 8.01C102.09 7.86 96.6 6.03 96.6 6.03L96.6 12.13L99.28 18.62L96.6 18.62L96.6 37.08C96.6 37.08 102.09 35.25 102.43 35.1C103.68 34.56 104.75 33.66 105.5 32.53C106.25 31.39 106.66 30.07 106.67 28.71L106.67 14.4Z" fill="#0000DE" fill-opacity="1.000000" fill-rule="nonzero"/>
	</g>
</svg>
