<svg width="16.000000" height="16.000000" viewBox="0 0 16 16" fill="none" xmlns="http://www.w3.org/2000/svg" xmlns:xlink="http://www.w3.org/1999/xlink">

	
	<path id="Vector" d="M5.99 13.55C6.03 13.65 6.09 13.74 6.18 13.8C6.27 13.86 6.37 13.89 6.48 13.89C6.58 13.88 6.68 13.85 6.77 13.79C6.85 13.72 6.91 13.63 6.95 13.53L8.42 8.75C8.44 8.67 8.48 8.6 8.54 8.54C8.6 8.48 8.67 8.44 8.75 8.42L13.53 6.95C13.63 6.91 13.72 6.85 13.79 6.77C13.85 6.68 13.88 6.58 13.89 6.48C13.89 6.37 13.86 6.27 13.8 6.18C13.74 6.09 13.65 6.03 13.55 6L2.97 2.33C2.88 2.3 2.78 2.3 2.69 2.32C2.6 2.34 2.52 2.38 2.45 2.45C2.38 2.52 2.34 2.6 2.32 2.69C2.3 2.78 2.3 2.88 2.33 2.97L5.99 13.55Z" stroke="#6E9BB8" stroke-opacity="1.000000" stroke-width="1.000000" stroke-linejoin="round"/>
</svg>
