<svg width="11.479736" height="11.479492" viewBox="0 0 11.4797 11.4795" fill="none" xmlns="http://www.w3.org/2000/svg" xmlns:xlink="http://www.w3.org/1999/xlink">
	<desc>
			Created with Pixso.
	</desc>
	<defs/>
	<path id="Vector" d="M3.27 5.78C3.79 6.84 4.65 7.69 5.72 8.21C5.79 8.24 5.88 8.26 5.97 8.25C6.05 8.25 6.13 8.22 6.2 8.17L7.77 7.12C7.84 7.08 7.92 7.05 8 7.04C8.08 7.04 8.17 7.05 8.24 7.08L11.17 8.34C11.27 8.38 11.35 8.45 11.41 8.54C11.46 8.64 11.48 8.75 11.47 8.85C11.38 9.58 11.03 10.24 10.48 10.73C9.93 11.21 9.22 11.47 8.5 11.47C6.24 11.47 4.08 10.58 2.48 8.99C0.89 7.39 0 5.23 0 2.97C0 2.25 0.26 1.54 0.74 0.99C1.23 0.44 1.89 0.09 2.62 0C2.72 -0.01 2.83 0.01 2.92 0.06C3.02 0.12 3.09 0.2 3.13 0.3L4.39 3.23C4.42 3.3 4.44 3.39 4.43 3.47C4.42 3.55 4.39 3.63 4.35 3.7L3.31 5.29C3.26 5.36 3.23 5.44 3.23 5.53C3.22 5.61 3.24 5.7 3.27 5.78Z" fill="#0000DE" fill-opacity="1.000000" fill-rule="nonzero"/>
</svg>
